<svg xmlns="http://www.w3.org/2000/svg" width="49" height="49" viewBox="0 0 48.915 48.915">
  <g transform="translate(-0.012 -0.018)">
    
    <path d="M17.873,1.423l-.41,32.1L39.486,42.2l.346-31.257L17.873,1.423Z"
          transform="translate(-0.012 -0.018)"
          fill="green"/>

    <path d="M56.149,73.146l.426-33.326L39.82,54.655,40.2,84.59Z"
          transform="translate(-39.261 -39.261)"
          fill="#95ff80"/>

    <path d="M1203.375,39.82l-.426,33.326,23.136,9.12.359-32.44Z"
          transform="translate(-1186.062 -39.261)"
          fill="#62d85e"/>

    <path d="M85.728,2413.68,69.82,2425.092l0,.093,11.6,2.944,8.371-5.024,10.675,5.045,8.395-5.35Z"
          transform="translate(-68.84 -2379.795)"
          fill="#47c44c"/>

    <path d="M1219.089,1697.08l-13.839,10.073,22.815,8.72Z"
          transform="translate(-1188.33 -1673.255)"
          fill="rgba(206,255,194,0.6)"/>

    <path d="M95.43,143.5l15.128-10.834.391-32.306Z"
          transform="translate(-94.09 -98.951)"
          fill="#ceffc2"/>

  </g>
</svg>