<?xml version="1.0" standalone="no"?>
<!DOCTYPE svg PUBLIC "-//W3C//DTD SVG 20010904//EN"
 "http://www.w3.org/TR/2001/REC-SVG-20010904/DTD/svg10.dtd">
<svg version="1.0" xmlns="http://www.w3.org/2000/svg"
 width="577.000000pt" height="516.000000pt" viewBox="0 0 577.000000 516.000000"
 preserveAspectRatio="xMidYMid meet">
<metadata>
Created by potrace 1.16, written by Peter Selinger 2001-2019
</metadata>
<g transform="translate(0.000000,516.000000) scale(0.100000,-0.100000)"
fill="#000000" stroke="none">
<path d="M2152 5140 c-18 -11 -46 -40 -63 -64 l-31 -43 -49 18 c-104 40 -186
14 -234 -72 -27 -51 -30 -62 -33 -185 l-4 -131 -68 -6 c-38 -3 -86 -15 -107
-26 -54 -27 -78 -85 -54 -130 9 -16 -6 -20 -152 -49 -138 -28 -177 -40 -262
-82 -236 -116 -474 -354 -506 -508 -22 -108 30 -532 93 -749 l21 -72 -45 -50
c-44 -49 -68 -108 -68 -163 1 -13 10 -48 21 -78 11 -30 24 -84 29 -120 5 -36
11 -77 15 -91 6 -24 2 -27 -82 -62 -263 -110 -463 -316 -544 -563 -18 -53 -23
-92 -23 -169 -1 -91 2 -106 31 -167 112 -238 390 -276 644 -87 115 85 232 227
302 366 l27 52 52 -24 c29 -13 100 -34 158 -46 172 -37 446 -29 603 17 13 4
17 -1 17 -20 0 -18 -9 -30 -30 -41 -34 -17 -47 -55 -34 -94 7 -18 22 -30 52
-41 26 -9 42 -21 42 -31 0 -49 -135 -454 -246 -734 -100 -256 -93 -244 -160
-271 -38 -15 -75 -40 -103 -69 -41 -44 -43 -49 -39 -95 5 -44 2 -52 -25 -77
-81 -77 -112 -198 -66 -257 49 -63 185 -98 445 -118 268 -19 474 10 541 77 28
28 33 40 33 79 0 119 -111 240 -267 292 -71 23 -68 20 -53 38 18 23 16 80 -4
111 -10 15 -37 36 -61 46 -34 15 -43 24 -38 37 3 9 34 85 69 168 67 163 210
590 239 715 l18 76 111 12 c104 11 495 74 543 87 29 8 30 0 38 -206 6 -167 -4
-445 -25 -705 -15 -175 -13 -169 -75 -200 -91 -44 -137 -125 -102 -178 14 -22
13 -28 -15 -85 -39 -78 -43 -157 -12 -199 64 -87 296 -135 654 -136 285 -1
408 34 411 120 3 81 -20 133 -90 203 -73 73 -185 122 -359 156 -19 4 -21 7
-11 25 29 54 -22 128 -103 149 l-41 11 7 77 c22 237 26 322 25 577 0 154 -4
320 -8 369 -4 57 -3 89 4 91 138 39 190 60 222 89 30 27 35 37 29 59 -9 36
-45 58 -96 59 -34 0 -43 4 -51 25 -5 13 -9 35 -9 48 0 21 7 25 58 35 140 28
508 123 543 141 21 10 48 32 60 48 l22 30 58 -30 c125 -63 317 -86 444 -54 33
9 89 30 125 47 87 42 229 184 290 288 l43 75 53 2 c81 3 144 46 160 109 4 16
16 24 42 29 110 20 259 131 316 235 48 88 44 197 -8 253 -23 25 -24 29 -11 54
18 33 19 106 4 136 -6 12 -20 32 -31 44 -19 21 -19 22 -1 31 10 5 68 22 128
36 123 31 188 56 223 89 79 74 65 179 -30 229 -62 33 -185 30 -291 -6 -153
-52 -414 -199 -554 -312 l-33 -27 0 29 c0 45 -53 147 -94 181 -70 58 -153 68
-232 28 -70 -36 -89 -66 -89 -141 0 -72 9 -85 97 -145 83 -57 101 -83 95 -144
-2 -27 -10 -78 -17 -112 -11 -51 -11 -72 0 -117 l13 -55 -31 -35 c-56 -64 -52
-136 15 -239 18 -27 18 -28 -15 -92 -19 -35 -57 -87 -85 -116 -130 -132 -285
-137 -482 -16 l-70 42 -7 170 c-20 510 -79 912 -193 1325 -103 371 -140 441
-248 471 -44 12 -605 6 -677 -7 l-35 -7 51 54 c74 79 92 150 48 193 -32 32
-83 20 -198 -49 -60 -36 -111 -63 -113 -61 -3 2 -11 30 -19 63 -35 136 -146
307 -225 348 -40 21 -108 19 -147 -5z m140 -65 c42 -28 81 -82 127 -172 l31
-63 -102 0 c-57 0 -148 -7 -203 -15 -87 -13 -287 -61 -340 -81 -17 -7 -18 -2
-12 69 11 131 53 197 123 197 19 0 77 -18 129 -41 116 -49 160 -50 160 -4 0
22 -5 31 -20 33 -59 9 -66 12 -56 30 5 10 22 30 37 45 34 35 77 35 126 2z
m524 -312 c-9 -34 -98 -122 -148 -146 -20 -9 -50 -17 -67 -17 -18 0 -116 -9
-219 -20 -613 -66 -796 -81 -810 -66 -21 21 -6 52 36 72 33 15 55 16 222 8
293 -14 454 -11 540 9 72 17 218 83 365 167 74 42 92 40 81 -7z m665 -226 c50
-33 75 -77 115 -201 48 -148 137 -508 168 -676 57 -315 89 -707 84 -1040 -4
-295 2 -287 -273 -354 -301 -74 -396 -95 -770 -167 -718 -138 -847 -161 -871
-155 -32 8 -53 43 -74 121 l-17 64 26 7 c14 3 73 6 131 5 227 -4 791 86 1245
198 286 71 363 107 411 194 l29 52 0 315 c0 179 -6 369 -13 440 -31 306 -107
663 -184 865 -36 93 -91 156 -153 175 -56 18 -453 25 -650 11 -486 -35 -1025
-124 -1181 -195 -35 -16 -58 -36 -75 -62 -23 -38 -24 -46 -23 -209 1 -93 9
-237 18 -320 28 -245 91 -663 121 -802 5 -22 5 -22 -21 2 -14 13 -34 27 -44
30 -11 3 -21 20 -25 43 -11 58 -36 91 -86 115 -37 17 -48 28 -53 52 -3 17 -17
46 -30 65 l-24 35 20 28 c88 123 52 366 -76 513 l-42 49 -23 190 c-34 289 -34
288 -22 332 24 89 123 127 431 167 152 20 986 102 1170 116 80 5 163 12 185
13 22 2 153 4 291 5 246 2 252 2 285 -21z m-185 -222 c28 -8 60 -25 72 -38 48
-51 140 -351 186 -607 66 -364 94 -925 53 -1064 -15 -54 -64 -100 -134 -126
-88 -33 -456 -124 -669 -165 -249 -47 -582 -94 -719 -102 l-110 -6 0 94 c0 80
-4 102 -26 149 -49 104 -190 230 -275 246 -40 7 -40 7 -78 224 -84 470 -145
1007 -126 1109 17 95 63 119 342 176 520 107 1300 165 1484 110z m-2244 -97
c-3 -55 15 -262 34 -400 l7 -48 -47 0 c-25 0 -46 1 -46 3 0 1 -7 65 -15 142
-8 77 -15 179 -15 226 l0 86 38 26 c20 14 39 26 42 26 3 1 4 -27 2 -61z m-136
-491 c-12 -10 -53 -40 -92 -67 -39 -27 -90 -70 -113 -96 -23 -26 -43 -45 -45
-43 -7 8 -26 198 -26 261 1 102 37 165 179 311 l76 78 21 -213 21 -213 -21
-18z m4721 152 c66 -25 91 -79 57 -127 -23 -33 -60 -49 -203 -87 -72 -19 -145
-40 -163 -48 -19 -8 -43 -10 -58 -6 -38 11 -131 10 -172 -1 -59 -17 -120 -69
-151 -130 -35 -68 -35 -147 1 -197 18 -26 20 -36 12 -58 -13 -35 -13 -111 1
-138 25 -49 62 -76 117 -88 96 -20 202 23 202 82 0 37 -25 39 -76 4 -102 -69
-224 19 -170 123 33 63 119 112 196 112 91 0 150 -48 158 -129 11 -117 -119
-262 -282 -313 -50 -16 -78 -19 -153 -14 l-93 6 0 -24 c0 -26 38 -46 89 -46
46 0 56 -15 27 -38 -90 -70 -297 0 -378 127 -31 50 -36 95 -13 128 l16 22 32
-34 c39 -43 97 -59 97 -27 0 11 -18 42 -40 68 -40 49 -70 123 -70 174 0 15 7
49 15 76 22 74 19 142 -9 188 -13 21 -54 62 -92 90 -38 28 -74 62 -81 75 -27
55 42 131 119 131 49 0 86 -19 125 -64 37 -41 52 -82 61 -168 7 -59 9 -63 35
-66 19 -2 27 1 27 12 0 46 310 247 517 336 133 56 237 73 300 49z m-4526 -200
c43 -30 97 -110 125 -185 49 -130 29 -262 -43 -291 l-32 -13 11 31 c6 17 8 70
6 122 -7 124 -32 185 -114 275 -58 63 -63 72 -47 81 22 13 58 6 94 -20z m-99
-88 c44 -47 59 -73 81 -139 31 -93 34 -164 11 -222 -15 -36 -20 -40 -51 -40
-22 0 -41 -8 -56 -23 -12 -13 -52 -44 -89 -70 -37 -26 -76 -61 -88 -77 -12
-17 -25 -30 -29 -30 -18 0 -91 262 -91 327 0 124 49 206 167 284 41 27 79 49
83 49 4 0 32 -26 62 -59z m4263 -54 c57 -28 95 -90 81 -135 -5 -15 -18 -18
-108 -17 -105 0 -132 -7 -200 -51 -22 -15 -28 -15 -40 -3 -36 38 -3 139 61
183 61 43 148 52 206 23z m-4088 -443 c61 -29 80 -84 30 -84 -30 0 -115 -41
-154 -74 -41 -34 -46 -76 -9 -76 13 0 46 15 73 33 98 66 190 72 237 16 35 -42
34 -69 -2 -69 -65 0 -188 -88 -180 -129 6 -25 48 -17 106 22 85 58 159 59 204
3 32 -39 18 -129 -26 -165 -13 -11 -16 -11 -16 3 0 19 -26 21 -63 4 -22 -11
-27 -20 -27 -49 0 -175 -89 -319 -220 -355 -52 -15 -60 -20 -60 -42 0 -23 2
-24 55 -20 30 1 55 -1 55 -5 0 -24 -45 -67 -85 -83 -82 -31 -193 -2 -274 72
-23 20 -49 50 -57 65 -16 32 -19 115 -3 124 5 4 32 -14 60 -40 51 -47 81 -55
87 -22 3 12 -22 45 -71 95 -120 124 -153 210 -144 368 l7 103 -28 3 c-19 2
-28 9 -30 25 -5 31 15 97 37 125 20 23 20 23 35 3 9 -12 13 -28 10 -40 -4 -11
-9 -39 -11 -62 -5 -40 -3 -43 18 -43 19 0 30 12 53 56 35 67 111 153 173 195
84 58 157 72 220 43z m548 -507 c90 -60 169 -177 181 -269 5 -35 2 -48 -16
-70 -12 -16 -25 -28 -30 -28 -4 0 -11 21 -15 48 -12 85 -51 155 -119 215 -62
54 -129 97 -153 97 -18 0 -16 10 4 33 25 27 82 17 148 -26z m-137 -86 c62 -33
139 -108 166 -164 24 -48 37 -129 23 -143 -15 -15 -145 -55 -196 -60 -70 -8
-120 6 -193 51 l-57 36 35 73 c19 40 37 95 41 124 5 45 9 52 32 57 14 3 37 14
51 25 32 25 52 25 98 1z m-854 -401 c14 -22 26 -45 26 -52 0 -22 -87 -176
-134 -236 -111 -145 -272 -215 -337 -146 -20 21 -24 36 -24 87 0 50 7 76 36
137 64 134 163 233 312 311 l72 38 11 -49 c6 -27 23 -68 38 -90z m658 -4 c10
-6 25 -33 34 -61 23 -70 50 -112 92 -140 l37 -25 -66 0 c-77 0 -90 8 -123 75
-23 47 -66 175 -66 197 0 5 17 -1 38 -13 20 -13 45 -28 54 -33z m394 -33 c9
-27 25 -68 36 -92 10 -24 17 -46 15 -48 -2 -2 -46 -4 -98 -4 -133 -2 -190 24
-230 103 -10 21 -19 39 -19 40 0 2 33 4 73 5 42 0 95 9 127 21 30 11 60 20 67
21 6 0 19 -20 29 -46z m1356 -14 c9 -42 4 -59 -18 -59 -9 0 -76 -16 -148 -36
-126 -35 -229 -57 -421 -89 -49 -8 -115 -19 -145 -25 -71 -13 -260 -33 -265
-28 -2 1 -5 23 -6 48 l-4 45 60 8 c118 16 379 64 420 77 17 5 109 23 205 40
96 17 202 37 235 44 33 8 64 13 70 12 5 -2 13 -18 17 -37z m-1838 -137 l17
-33 -38 7 c-120 21 -246 64 -190 64 49 0 146 78 148 118 0 9 11 -14 23 -53 12
-38 30 -85 40 -103z m1965 44 c16 -18 -47 -47 -154 -71 -44 -9 -84 -21 -90
-25 -27 -21 -541 -116 -808 -150 -67 -8 -92 -8 -103 1 -22 18 -17 29 13 29 96
0 512 66 733 116 85 19 175 40 200 45 44 10 71 20 140 52 44 20 55 20 69 3z
m-137 -1345 c29 -26 31 -31 21 -53 -9 -19 -22 -27 -55 -32 -23 -4 -60 -12 -80
-18 -33 -10 -38 -15 -38 -41 0 -30 0 -30 48 -23 26 3 75 9 108 12 157 16 394
-89 451 -200 57 -110 27 -135 -190 -157 -79 -8 -151 -8 -268 0 -249 18 -404
50 -456 95 -35 30 -37 82 -4 149 21 42 26 47 57 47 31 0 34 3 34 30 0 23 -5
31 -24 36 -14 3 -32 14 -41 24 -21 23 -9 48 39 85 38 29 46 31 46 10 0 -51
143 -61 235 -15 40 20 51 31 53 53 4 35 23 34 64 -2z m-1272 -36 c18 -19 19
-26 9 -49 -12 -25 -15 -26 -98 -27 -114 -1 -165 -16 -169 -50 l-3 -26 138 1
c161 1 220 -13 318 -79 110 -74 161 -189 99 -230 -93 -61 -461 -69 -720 -16
-108 22 -157 44 -171 74 -25 55 60 197 118 197 23 0 29 4 29 22 0 12 -12 34
-26 49 -25 26 -25 28 -9 52 14 22 86 77 100 77 3 0 5 -16 5 -35 l0 -35 64 0
c93 0 222 42 244 79 18 32 39 31 72 -4z"/>
<path d="M2872 3992 c-32 -32 -43 -91 -40 -209 l3 -108 55 -13 c30 -7 68 -17
84 -20 29 -7 28 -9 -43 -46 l-73 -38 6 -57 c9 -77 42 -174 71 -205 30 -32 81
-35 118 -6 46 36 62 100 62 245 -1 146 -23 252 -74 353 -52 102 -126 147 -169
104z"/>
<path d="M2216 3925 c-26 -27 -46 -114 -45 -199 2 -124 3 -127 79 -143 100
-22 100 -21 25 -62 l-70 -38 2 -43 c3 -58 37 -168 66 -211 20 -30 29 -34 70
-37 39 -3 51 1 71 21 88 88 79 441 -16 619 -41 77 -78 108 -128 108 -21 0 -45
-7 -54 -15z"/>
<path d="M2715 3393 c-28 -7 -72 -50 -102 -100 -37 -64 -23 -74 21 -15 50 69
81 92 123 92 45 0 100 -26 120 -57 20 -30 13 -105 -14 -142 -11 -14 -40 -37
-66 -51 -48 -25 -59 -40 -32 -40 22 0 87 34 107 57 45 49 56 146 22 199 -27
44 -115 72 -179 57z"/>
<path d="M2002 3119 c-50 -25 -81 -64 -84 -110 -4 -45 26 -52 58 -12 21 26 23
27 30 8 69 -188 109 -262 184 -335 103 -102 245 -157 374 -147 183 16 331 167
387 398 10 42 15 48 62 70 65 31 107 66 107 90 0 29 -25 24 -135 -31 -242
-121 -465 -134 -733 -44 -43 14 -99 38 -127 54 -49 28 -49 29 -22 35 17 5 27
14 27 26 0 16 -7 19 -42 19 -24 0 -62 -10 -86 -21z m334 -374 c20 -8 58 -31
85 -51 28 -20 56 -33 64 -30 18 7 20 47 3 65 -11 11 -8 12 12 6 51 -14 107
-46 139 -79 l32 -33 -43 -18 c-90 -36 -210 -15 -317 57 -54 36 -101 78 -101
90 0 14 89 9 126 -7z"/>
</g>
</svg>
