<?xml version="1.0" standalone="no"?>
<!DOCTYPE svg PUBLIC "-//W3C//DTD SVG 20010904//EN"
 "http://www.w3.org/TR/2001/REC-SVG-20010904/DTD/svg10.dtd">
<svg version="1.0" xmlns="http://www.w3.org/2000/svg"
 width="780.000000pt" height="790.000000pt" viewBox="0 0 780.000000 790.000000"
 preserveAspectRatio="xMidYMid meet">
<metadata>
Created by potrace 1.16, written by Peter Selinger 2001-2019
</metadata>
<g transform="translate(0.000000,790.000000) scale(0.100000,-0.100000)"
fill="#ffffff" stroke="none">
<path d="M4586 7885 c-126 -36 -269 -140 -337 -246 l-32 -49 -17 28 c-28 46
-109 110 -191 151 -143 72 -284 76 -415 11 -119 -59 -220 -202 -231 -330 -3
-33 -7 -60 -8 -60 -1 0 -24 10 -51 22 -68 31 -186 30 -266 -1 -70 -27 -151
-98 -183 -161 -33 -66 -48 -154 -35 -219 5 -30 10 -56 10 -59 0 -2 -23 -2 -52
0 -98 10 -227 -42 -301 -121 -58 -62 -83 -112 -97 -193 -29 -168 64 -354 216
-429 l52 -26 -19 -24 c-34 -44 -59 -126 -59 -194 0 -162 106 -288 285 -341
l60 -18 1 -60 c0 -102 59 -183 158 -221 l45 -17 -14 -29 c-43 -83 -57 -258
-30 -363 38 -146 141 -279 259 -336 l66 -31 0 -97 c0 -429 310 -741 795 -802
96 -13 369 -8 438 7 l28 6 -50 -94 c-27 -52 -69 -116 -92 -144 -133 -158 -288
-471 -344 -697 -15 -59 -20 -68 -44 -73 -73 -16 -131 -81 -131 -147 0 -29 -6
-41 -30 -58 -17 -12 -40 -40 -51 -63 -41 -80 -6 -217 80 -310 23 -24 41 -48
41 -52 0 -4 -18 -29 -40 -55 -45 -54 -134 -114 -222 -150 l-57 -23 -39 25
c-73 49 -146 59 -203 30 -30 -15 -40 -16 -65 -6 -16 7 -50 15 -75 19 l-47 7
-6 226 c-9 345 -15 609 -21 917 -8 447 -14 546 -33 579 -35 60 -54 64 -437 81
-192 8 -492 22 -665 30 -173 8 -556 26 -850 40 -294 14 -591 28 -660 31 l-125
6 -140 -61 c-77 -34 -162 -72 -189 -84 -72 -32 -130 -102 -151 -182 -18 -64
-18 -85 9 -728 15 -364 33 -826 41 -1027 18 -440 26 -518 57 -560 26 -36 104
-83 163 -99 39 -11 314 -47 425 -56 84 -7 495 -48 497 -50 3 -2 -45 -407 -49
-410 -2 -2 -57 -8 -123 -15 -262 -25 -441 -81 -465 -146 -6 -14 -10 -58 -10
-98 0 -92 15 -113 113 -160 104 -50 249 -84 448 -105 506 -55 1070 19 1129
147 13 29 13 116 0 164 -24 86 -194 150 -473 179 -56 6 -117 13 -136 15 l-33
5 6 52 c3 29 9 116 12 195 7 139 7 143 28 138 12 -2 54 -8 95 -12 l74 -7 -37
-19 -37 -19 3 -144 c2 -85 7 -148 14 -155 12 -12 90 -28 669 -135 226 -42 443
-85 483 -96 39 -11 75 -18 80 -16 4 3 41 -1 82 -9 41 -7 210 -38 375 -67 165
-30 380 -69 477 -87 l177 -33 183 67 c443 164 989 375 1005 388 9 7 13 38 13
89 l0 79 28 -6 c15 -2 296 -29 625 -59 329 -30 602 -57 606 -59 3 -2 45 -7 91
-10 117 -8 415 -34 530 -46 257 -27 546 -47 554 -39 5 4 10 23 10 41 0 18 4
182 8 363 4 182 10 506 14 720 3 215 9 532 13 705 3 173 6 565 6 870 0 511 -1
559 -18 601 -37 96 -115 158 -224 179 -59 11 -1090 40 -1498 42 -229 1 -277
-1 -313 -15 -43 -16 -44 -16 -100 12 -32 16 -77 34 -100 40 l-42 12 46 62 c26
34 50 65 54 70 4 4 33 -5 66 -20 53 -25 70 -28 169 -28 103 0 114 2 177 32
119 56 180 138 194 262 l7 63 35 -6 c50 -8 204 28 279 64 76 37 154 120 177
186 29 87 15 205 -33 272 -25 36 -26 42 -5 42 9 0 43 14 76 32 117 62 227 217
265 372 13 56 15 80 6 131 -22 126 -107 242 -206 280 l-42 16 45 48 c76 78 95
128 95 246 0 82 -4 109 -22 148 -46 99 -136 180 -233 208 -57 16 -56 15 -37
37 62 69 78 215 35 332 -81 223 -284 358 -482 322 -36 -7 -72 -15 -80 -18 -11
-4 -17 3 -21 23 -33 160 -91 258 -201 336 -82 59 -151 79 -274 79 -112 1 -197
-15 -279 -54 -25 -12 -49 -22 -54 -22 -4 -1 -23 -14 -43 -29 -19 -16 -36 -27
-37 -25 -1 1 -12 23 -25 48 -58 117 -177 228 -290 270 -73 28 -207 35 -276 15z
m151 -1781 c-12 -12 41 -100 85 -140 78 -72 176 -105 293 -99 96 5 194 26 232
51 14 8 24 10 28 4 3 -6 2 -10 -3 -10 -9 0 -17 -20 -31 -85 -3 -16 -6 -68 -6
-116 1 -102 30 -175 91 -229 22 -19 37 -39 36 -44 -2 -6 -5 -19 -7 -28 -2 -9
-8 -25 -14 -36 -6 -11 -16 -51 -22 -90 l-12 -70 -51 -6 c-28 -4 -66 -9 -83
-12 -24 -5 -33 -3 -33 8 0 26 -67 153 -108 204 -52 66 -174 148 -258 174 -274
84 -563 -86 -649 -383 -15 -52 -19 -58 -38 -53 -50 14 -94 17 -132 9 l-40 -9
-23 81 c-28 97 -60 153 -125 222 -96 101 -211 153 -339 153 -40 -1 -91 -7
-112 -15 -22 -8 -43 -12 -47 -9 -14 9 -21 190 -10 264 7 41 14 76 16 78 2 2
35 -5 75 -16 78 -21 262 -24 282 -4 6 6 17 8 24 5 8 -3 14 0 14 7 0 6 4 9 9 5
5 -3 12 -1 16 5 3 5 14 10 23 10 10 0 34 11 53 24 l36 25 29 -30 c39 -42 103
-78 166 -95 67 -18 183 -10 256 16 28 11 52 17 52 15 0 -10 100 46 120 67 11
12 20 18 20 13 0 -5 7 1 16 13 8 12 19 20 23 18 4 -3 14 4 21 15 8 10 19 19
25 19 6 0 29 18 50 40 21 22 43 40 49 40 5 0 7 -3 3 -6z m-1066 -660 c74 -33
140 -103 182 -192 30 -64 32 -73 32 -187 0 -109 -2 -125 -27 -177 -57 -123
-182 -214 -300 -221 l-58 -3 0 58 0 58 38 0 c21 0 47 7 59 15 31 22 65 118 61
174 -3 43 -5 46 -45 61 -23 8 -45 19 -49 23 -4 4 16 17 45 29 l53 21 -7 46
c-13 98 -40 153 -86 177 -35 18 -70 10 -100 -22 -12 -13 -26 -24 -29 -24 -12
0 -43 161 -33 171 35 35 178 32 264 -7z m1213 3 c77 -36 122 -72 173 -140 80
-110 105 -264 63 -398 -91 -293 -434 -387 -653 -180 -98 93 -143 209 -134 350
6 105 32 177 90 251 51 64 108 106 180 132 75 27 204 20 281 -15z m-1570 -84
c39 -132 86 -451 86 -579 l0 -95 -31 18 c-49 29 -128 119 -154 175 -52 114
-54 241 -6 368 20 53 74 130 91 130 5 0 11 -8 14 -17z m2742 -155 c32 -17 101
-78 89 -78 -4 0 0 -12 10 -26 34 -53 41 -163 14 -241 -24 -72 -116 -200 -149
-208 -35 -8 -60 -18 -60 -24 0 -9 -43 -15 -111 -15 -39 -1 -71 6 -107 23 -29
14 -54 22 -56 20 -3 -2 -7 -16 -9 -29 -3 -14 -10 -38 -17 -55 -6 -16 -11 -31
-10 -33 4 -10 -100 -191 -145 -250 -30 -40 -55 -76 -55 -79 0 -3 -15 -19 -32
-35 -18 -17 -59 -54 -91 -84 -31 -30 -61 -54 -65 -54 -4 0 -13 -9 -20 -20 -7
-12 -17 -18 -21 -15 -5 2 -11 -2 -15 -10 -3 -8 -15 -15 -26 -15 -11 0 -20 -4
-20 -10 0 -5 -7 -10 -15 -10 -8 0 -15 -5 -15 -11 0 -5 -4 -8 -9 -5 -4 3 -19
-3 -31 -14 -12 -11 -27 -17 -31 -14 -5 3 -9 0 -9 -7 0 -7 -3 -9 -7 -6 -3 4
-20 -2 -37 -12 -49 -30 -218 -80 -345 -102 -152 -27 -418 -29 -535 -4 -304 64
-512 227 -590 463 -25 75 -45 190 -46 263 l0 37 88 4 c70 4 100 11 154 35 l66
31 13 -29 c32 -79 114 -129 209 -129 50 0 92 12 80 23 -3 3 -30 12 -60 21 -79
22 -114 48 -139 98 -44 92 -19 147 70 156 30 2 62 11 71 19 29 26 41 76 28
122 -12 45 -30 55 -30 17 0 -38 -21 -86 -42 -97 -11 -6 -22 -8 -25 -5 -3 3 4
38 16 78 11 40 21 83 21 96 0 30 41 45 100 39 82 -10 95 -21 108 -90 30 -162
146 -314 295 -387 177 -86 355 -72 514 39 136 96 232 273 233 428 l0 41 59 7
c33 4 65 4 70 0 6 -3 11 -22 11 -41 0 -101 94 -183 187 -164 48 11 82 37 89
68 3 15 11 41 17 57 6 17 12 35 13 42 2 14 38 68 68 101 12 13 21 27 21 30 0
4 4 6 8 4 4 -1 10 5 13 13 4 8 12 15 20 15 8 0 14 5 14 12 0 6 2 9 5 6 3 -3
22 1 43 8 46 17 117 13 158 -8z m-486 -1228 c109 -55 150 -88 172 -138 21 -46
21 -80 3 -248 -9 -86 -86 -269 -158 -374 -34 -49 -116 -140 -127 -140 -3 0
-26 39 -51 87 -92 182 -236 284 -317 227 -37 -25 -28 -44 21 -44 79 0 135 -60
279 -299 26 -42 43 -61 57 -61 58 0 271 258 327 395 36 88 74 257 74 325 l0
41 101 -52 c55 -28 134 -76 175 -105 41 -29 74 -51 74 -49 0 2 12 -8 28 -21
87 -80 132 -124 126 -124 -3 0 9 -17 28 -37 41 -47 117 -154 148 -210 13 -24
28 -43 32 -43 5 0 7 -3 5 -7 -2 -5 8 -30 24 -58 60 -108 149 -329 149 -369 0
-10 -15 -9 -67 2 -85 17 -280 11 -373 -13 -36 -9 -107 -37 -159 -62 -75 -37
-95 -43 -102 -32 -16 25 -109 266 -109 283 0 17 -15 22 -24 8 -10 -17 16 -149
49 -250 19 -57 35 -108 35 -112 0 -5 -11 -26 -25 -46 -33 -49 -34 -114 -1
-171 20 -35 23 -51 19 -105 -6 -83 15 -133 82 -187 56 -46 128 -77 205 -87
l52 -7 -6 -39 c-9 -53 -47 -125 -87 -166 -47 -48 -105 -79 -195 -104 -75 -21
-97 -23 -406 -22 l-326 1 -38 32 c-47 42 -111 69 -179 77 -42 5 -68 2 -119
-16 -58 -21 -70 -22 -106 -11 -23 7 -75 16 -116 21 -41 4 -78 10 -80 13 -11
11 39 90 101 159 36 39 65 78 65 85 0 7 -9 30 -20 50 -27 50 -25 64 10 126 17
31 30 68 30 88 -1 56 -36 199 -73 295 -64 165 -197 409 -204 374 -2 -8 30
-102 72 -208 69 -176 85 -232 69 -232 -4 0 -35 26 -69 59 -34 32 -90 75 -124
95 -61 37 -207 96 -239 96 -45 1 -46 13 -9 126 60 183 205 485 250 522 11 10
16 -1 27 -61 23 -131 76 -238 111 -225 8 3 27 48 43 99 27 92 58 163 75 173
12 8 77 -56 130 -126 24 -32 47 -58 51 -58 4 0 11 30 14 68 8 78 31 167 52
200 8 12 57 42 108 66 52 24 114 57 138 74 58 40 152 134 191 191 17 25 33 48
37 51 3 3 14 22 24 43 23 51 19 130 -8 135 -11 3 -25 -3 -32 -12 -10 -15 -14
-10 -28 30 -9 26 -16 49 -16 51 0 12 75 -9 130 -37z m-210 -43 c0 -6 14 -41
31 -78 l31 -68 -20 -29 c-12 -16 -62 -68 -111 -115 -66 -63 -112 -96 -172
-126 -89 -45 -131 -51 -155 -22 -12 14 -84 165 -84 176 0 7 99 65 198 117 65
34 134 72 155 85 20 13 37 21 37 19 0 -2 13 8 29 23 30 28 61 37 61 18z m680
-1 c229 -7 499 -14 805 -21 508 -12 679 -20 700 -33 5 -4 19 -8 30 -9 33 -6
61 -30 81 -70 18 -36 19 -69 19 -668 0 -346 -4 -918 -9 -1270 -5 -352 -8 -779
-8 -949 l1 -309 -90 7 c-49 4 -95 9 -103 12 -14 6 -68 148 -66 174 5 50 4
2657 -1 2750 -7 122 -25 185 -63 224 -12 11 -26 23 -31 25 -6 2 -30 13 -55 24
-25 12 -54 22 -65 23 -38 3 -240 14 -370 19 -71 3 -182 8 -245 10 -230 10
-518 17 -632 16 -109 -2 -118 0 -128 19 -13 25 -4 43 18 36 10 -3 105 -7 212
-10z m198 -120 c318 -8 510 -15 737 -27 205 -11 287 -29 314 -69 40 -60 40
-81 42 -1508 0 -755 -1 -1376 -4 -1378 -3 -3 -31 -1 -63 5 -33 5 -106 13 -164
16 -107 6 -160 13 -160 21 0 3 11 26 24 52 35 70 47 135 47 243 0 54 -2 102
-3 107 -2 6 22 28 52 49 65 45 114 114 136 191 14 46 15 67 6 121 -11 66 -21
89 -155 344 -37 71 -65 133 -62 137 3 5 7 34 10 65 4 48 1 64 -19 97 l-24 40
19 42 c23 51 23 80 0 131 -15 35 -81 105 -107 116 -5 2 -20 42 -34 89 -13 47
-44 137 -68 200 -24 63 -44 122 -44 132 1 24 -115 226 -182 318 -120 164 -331
339 -518 431 -72 35 -84 48 -43 43 14 -1 132 -5 263 -8z m-5233 -116 c435 -24
434 -24 1145 -60 944 -48 963 -49 988 -66 33 -22 31 -81 -4 -94 -45 -18 -93
-11 -149 20 -41 23 -67 30 -106 30 -29 0 -103 5 -163 10 -117 11 -693 47
-1281 80 -825 47 -985 59 -985 72 0 22 66 38 135 33 39 -3 228 -14 420 -25z
m3807 -75 c31 -66 32 -89 3 -65 -19 16 -29 8 -20 -19 8 -25 81 -98 117 -117
32 -16 32 -17 15 -98 l-12 -59 -29 37 c-59 78 -162 129 -208 105 -13 -7 -31
-21 -40 -32 -18 -20 -18 -20 -18 4 0 42 35 154 63 202 33 55 75 107 88 107 6
0 24 -29 41 -65z m-518 -1031 c117 -30 295 -133 314 -182 3 -9 18 -26 32 -38
32 -28 76 -108 84 -154 10 -58 -34 -119 -48 -66 -7 28 -76 106 -94 106 -19 0
-14 -20 18 -84 36 -71 40 -135 10 -183 -28 -46 -61 -64 -129 -70 -73 -7 -83 5
-51 66 23 45 35 51 43 21 3 -11 12 -20 21 -20 22 0 21 64 -3 116 -46 102 -232
203 -353 192 -44 -5 -88 -29 -88 -49 0 -4 23 -5 51 -2 51 6 51 6 44 -18 -13
-41 -55 -119 -64 -119 -5 0 -25 22 -45 49 -85 115 -86 223 -3 268 41 23 152
22 226 0 64 -20 76 -14 39 18 -39 33 -131 65 -188 65 -56 0 -65 16 -32 57 35
45 110 54 216 27z m2382 0 c106 -22 153 -44 197 -93 37 -41 47 -80 28 -109 -6
-11 -15 -9 -42 7 -40 23 -135 52 -143 44 -13 -13 -4 -23 51 -54 145 -83 190
-190 122 -292 -33 -50 -71 -78 -138 -102 l-41 -14 0 28 c0 16 -3 49 -6 75 -7
46 -7 46 23 46 17 0 36 -7 43 -15 17 -21 30 -19 30 5 0 32 -57 87 -108 104
-109 36 -270 29 -373 -15 -56 -24 -122 -91 -113 -114 8 -19 30 -20 41 -2 7 12
73 41 79 35 1 -2 5 -34 9 -73 8 -97 3 -103 -77 -81 -78 21 -136 54 -177 101
-25 29 -31 45 -31 81 0 82 40 129 163 190 80 41 80 60 -1 44 -62 -11 -100 -30
-146 -71 l-35 -30 -17 32 c-37 72 24 149 171 220 44 21 112 45 150 53 94 19
246 20 341 0z m-1938 -636 c6 -6 12 -16 12 -21 0 -5 -30 -40 -66 -77 -45 -47
-73 -86 -89 -127 -20 -50 -28 -58 -52 -61 -62 -6 -181 -36 -233 -59 -30 -13
-89 -46 -130 -72 -54 -35 -86 -49 -113 -50 -85 -2 -170 -91 -152 -159 4 -15 6
-43 5 -62 -1 -19 -3 -62 -4 -95 l-1 -61 -140 18 c-134 17 -364 52 -413 63
l-23 6 31 37 c17 20 40 47 50 60 25 29 35 28 50 -7 26 -65 98 -111 170 -111
38 1 106 35 125 64 27 41 34 89 19 131 -11 34 -11 41 9 72 18 28 39 41 119 73
170 66 303 161 398 285 l40 52 94 -5 c88 -4 96 -3 146 24 56 30 89 76 111 154
l13 45 6 -52 c3 -29 11 -58 18 -65z m2217 22 c8 -16 15 -33 15 -38 0 -6 25
-52 55 -103 31 -52 65 -124 76 -162 18 -59 19 -73 9 -117 -22 -91 -90 -167
-195 -216 -87 -41 -94 -32 -36 54 38 57 66 122 52 122 -4 0 -26 -26 -48 -58
-58 -82 -223 -205 -223 -166 0 3 14 26 32 50 17 24 29 47 25 50 -3 4 -34 -17
-69 -46 -79 -66 -214 -132 -338 -165 -107 -28 -287 -47 -382 -39 -35 2 -119 9
-188 14 -69 5 -162 12 -207 15 -182 13 -126 22 177 28 328 6 373 11 520 58
153 50 293 152 367 267 38 59 86 200 105 311 l13 74 61 18 c33 10 80 32 105
49 24 16 47 30 51 30 4 0 14 -13 23 -30z m-3532 -184 c38 -14 89 -38 115 -55
25 -16 50 -28 54 -25 12 8 -7 38 -42 67 -16 14 -30 28 -30 31 0 3 17 6 38 6
66 0 165 -77 197 -153 19 -46 22 -127 5 -167 -22 -54 -50 -34 -50 36 0 35 -37
121 -47 111 -3 -3 -6 -44 -6 -90 -1 -81 0 -87 36 -145 45 -72 46 -95 8 -133
-55 -55 -146 -31 -171 46 -11 32 -3 109 15 156 12 31 -15 31 -33 0 -22 -39
-44 -41 -36 -3 9 47 9 57 -1 61 -5 2 -35 -45 -65 -106 -53 -107 -84 -153 -102
-153 -4 0 -8 64 -8 142 0 137 1 143 26 180 29 42 27 56 -5 38 -12 -6 -21 -7
-21 -3 0 4 -3 47 -7 96 l-6 87 34 0 c19 0 65 -11 102 -24z m1787 -236 c135
-87 182 -275 94 -379 -23 -28 -89 -59 -100 -48 -3 3 2 20 11 37 20 39 23 113
5 135 -17 20 -30 19 -30 -2 0 -43 -24 -95 -56 -127 -58 -56 -153 -70 -270 -39
-48 13 -64 22 -64 35 0 23 -5 23 -40 -2 -18 -13 -48 -58 -76 -116 -56 -111
-88 -144 -145 -144 -65 0 -106 59 -93 135 15 93 98 214 193 280 47 32 52 45
17 45 -98 0 -256 -170 -281 -303 -10 -50 -63 -97 -111 -97 -26 0 -44 8 -66 31
-29 28 -30 34 -25 84 3 32 17 77 34 107 34 64 145 184 213 229 48 33 64 59 36
59 -37 0 -158 -75 -219 -135 -66 -65 -127 -168 -127 -213 0 -39 -11 -52 -44
-52 -23 0 -41 9 -61 30 -114 119 138 394 433 471 201 52 478 15 647 -86 80
-48 92 -47 53 6 -13 17 -47 47 -78 67 l-55 37 30 5 c43 8 118 -13 175 -50z
m-151 -685 c97 -14 111 -20 95 -34 -5 -4 -243 -86 -529 -181 -430 -142 -527
-171 -560 -167 -58 8 -612 97 -960 156 -165 28 -489 80 -720 116 -477 74 -475
74 -475 85 0 13 41 24 80 21 107 -7 787 -99 1075 -146 121 -19 321 -51 445
-70 124 -19 307 -49 408 -65 l183 -30 92 31 c51 17 99 37 108 45 8 8 29 14 45
14 33 0 292 84 308 100 5 5 19 10 30 10 22 0 225 68 242 82 7 5 10 18 7 28 -6
24 0 25 126 5z m2079 -91 c45 -3 82 -10 82 -15 0 -5 -44 -30 -97 -57 l-98 -47
-97 10 c-53 6 -99 13 -103 17 -4 3 10 29 31 57 l38 50 80 -5 c45 -2 118 -7
164 -10z m-5376 -340 c248 -31 408 -80 408 -123 0 -26 -14 -26 -54 -2 -64 39
-220 78 -408 101 -71 9 -98 16 -98 26 0 17 2 17 152 -2z"/>
<path d="M4707 5889 c-21 -5 -47 -14 -58 -20 -11 -6 -30 -12 -41 -14 -36 -7
-129 -108 -113 -123 4 -4 13 1 20 11 7 10 17 18 22 18 4 -1 35 8 68 19 96 32
208 28 262 -7 13 -9 23 -12 23 -9 0 13 56 -29 92 -68 38 -42 47 -39 26 11 -6
15 -11 31 -10 36 1 4 -3 7 -9 7 -5 0 -7 5 -4 10 3 6 2 10 -4 10 -6 0 -17 13
-25 29 -19 36 -72 68 -145 86 -30 8 -58 15 -61 14 -3 -1 -22 -5 -43 -10z"/>
<path d="M3538 5839 c-10 -5 -18 -7 -18 -4 0 3 -16 -9 -36 -27 -32 -30 -93
-128 -79 -128 4 0 23 13 43 30 77 61 194 74 269 30 43 -25 47 -25 31 3 -7 12
-12 25 -13 29 0 4 -11 15 -25 25 -14 9 -27 19 -30 22 -26 29 -107 41 -142 20z"/>
<path d="M4559 5316 c-123 -41 -133 -420 -13 -525 19 -17 45 -31 58 -31 56 0
101 72 113 180 l6 58 -62 22 c-33 13 -61 26 -61 30 0 4 27 18 60 33 34 14 60
32 60 40 0 8 -9 46 -21 83 -32 105 -69 133 -140 110z"/>
<path d="M5913 5078 c-13 -6 -23 -15 -23 -20 0 -4 -7 -8 -14 -8 -16 0 -66 -60
-66 -78 0 -7 -3 -12 -8 -12 -8 0 -46 -100 -40 -106 3 -2 15 14 27 36 12 22 26
40 32 40 5 0 8 5 7 11 -2 6 4 16 13 21 12 8 23 6 42 -8 32 -23 40 -44 39 -101
-1 -24 3 -43 9 -43 6 0 8 4 4 9 -3 5 -1 12 5 16 16 10 12 101 -5 119 -8 8 -15
19 -15 24 0 6 -6 12 -12 15 -20 7 19 44 60 58 20 7 49 12 65 11 24 -1 26 2 16
14 -14 17 -103 18 -136 2z"/>
<path d="M4038 4208 c-21 -5 -38 -14 -38 -20 0 -5 -4 -7 -9 -4 -11 7 -58 -30
-50 -39 4 -3 32 1 63 10 109 32 267 23 360 -19 28 -13 53 -22 55 -20 7 7 -21
34 -35 34 -8 0 -14 5 -14 10 0 6 -3 9 -7 8 -5 -2 -28 6 -53 16 -25 11 -54 21
-65 23 -50 10 -174 11 -207 1z"/>
<path d="M5020 2900 c-12 -12 -20 -33 -20 -55 0 -45 29 -75 73 -75 43 0 67 26
67 73 0 64 -76 101 -120 57z"/>
<path d="M5136 2329 c-20 -16 -26 -29 -26 -58 0 -47 24 -71 73 -71 75 0 95
100 26 135 -36 19 -41 19 -73 -6z"/>
</g>
</svg>
